<?xml version="1.0" encoding="utf-8"?>
<!-- Generator: Adobe Illustrator 21.0.0, SVG Export Plug-In . SVG Version: 6.00 Build 0)  -->
<svg version="1.1" id="Warstwa_1" xmlns="http://www.w3.org/2000/svg" xmlns:xlink="http://www.w3.org/1999/xlink" x="0px" y="0px"
	 viewBox="0 0 44 44" style="enable-background:new 0 0 44 44;" xml:space="preserve">
<style type="text/css">
	.st0{fill:none;stroke:#FFFFFF;stroke-width:4;stroke-miterlimit:50;}
	.st1{fill:#FFFFFF;}
</style>
<g>
	<g>
		<path d="M22,2c11,0,20,9,20,20s-9,20-20,20S2,33,2,22S11,2,22,2z"/>
		<path class="st0" d="M22,2c11,0,20,9,20,20s-9,20-20,20S2,33,2,22S11,2,22,2z"/>
	</g>
	<g>
		<path class="st1" d="M30,15.6L28.4,14L22,20.4L15.6,14L14,15.6l6.4,6.4L14,28.4l1.6,1.6l6.4-6.4l6.4,6.4l1.6-1.6L23.6,22L30,15.6z
			"/>
	</g>
</g>
</svg>
